<?xml version="1.0" standalone="no"?>
<!DOCTYPE svg PUBLIC "-//W3C//DTD SVG 20010904//EN"
 "http://www.w3.org/TR/2001/REC-SVG-20010904/DTD/svg10.dtd">
<svg version="1.0" xmlns="http://www.w3.org/2000/svg"
 width="974.000000pt" height="535.000000pt" viewBox="0 0 974.000000 535.000000"
 preserveAspectRatio="xMidYMid meet">

<g transform="translate(0.000000,535.000000) scale(0.100000,-0.100000)"
fill="#000000" stroke="none">
<path d="M3960 4535 c-367 -51 -858 -188 -1171 -325 -173 -77 -425 -209 -534
-282 -212 -140 -403 -360 -408 -468 -1 -43 18 -70 51 -70 7 0 82 69 165 154
215 218 370 329 666 476 354 176 686 275 1131 337 172 24 544 24 685 0 300
-52 494 -149 619 -310 242 -312 13 -773 -559 -1122 -203 -125 -480 -253 -710
-330 -209 -69 -626 -167 -632 -148 -2 5 -50 81 -106 168 l-104 160 41 55 c163
224 470 576 798 915 74 77 137 147 140 155 17 50 -89 124 -179 125 -45 0 -56
-4 -85 -31 -18 -17 -64 -46 -101 -64 -100 -46 -137 -82 -137 -132 0 -53 -8
-66 -115 -188 -133 -153 -290 -350 -407 -513 l-102 -143 -61 61 c-77 75 -210
158 -307 192 -96 34 -211 37 -280 6 -134 -60 -228 -240 -228 -438 0 -267 127
-432 408 -531 28 -10 52 -21 52 -25 0 -3 -26 -66 -59 -140 -140 -320 -241
-668 -241 -835 0 -119 56 -212 153 -254 62 -27 210 -40 245 -21 47 25 10 72
-75 97 -145 42 -181 228 -98 499 50 163 121 342 204 513 l70 142 58 1 c32 0
131 10 221 23 l164 22 93 -142 c277 -423 547 -760 807 -1009 181 -173 342
-272 539 -329 222 -64 493 -63 735 4 137 37 315 124 415 202 20 15 39 28 42
28 3 0 -18 -51 -48 -112 -100 -207 -84 -273 58 -248 142 26 281 101 328 177
30 48 40 101 28 145 -8 30 -16 39 -45 48 -19 7 -38 18 -41 26 -4 12 238 576
257 597 4 5 66 -32 136 -82 171 -119 225 -151 514 -301 319 -166 395 -191 369
-123 -15 41 -35 59 -264 248 -303 249 -419 378 -401 448 3 15 34 68 69 118
l62 91 323 143 c178 79 365 167 415 196 196 111 327 207 327 240 0 5 -18 9
-41 9 -45 0 -181 -56 -399 -165 -69 -34 -192 -88 -275 -119 -82 -31 -218 -84
-301 -116 -133 -53 -290 -110 -302 -110 -2 0 45 95 105 212 l108 212 154 160
c576 601 810 957 892 1361 19 93 17 243 -4 282 -19 35 -81 73 -119 73 -60 0
-253 -147 -362 -275 -200 -237 -422 -676 -725 -1431 -70 -176 -278 -630 -303
-660 -5 -7 -25 -15 -46 -19 -98 -18 -242 -88 -242 -117 0 -16 63 -78 105 -103
25 -14 45 -28 45 -32 0 -12 -181 -434 -199 -464 -30 -49 -168 -186 -246 -244
-91 -68 -192 -118 -302 -151 -119 -36 -334 -45 -468 -19 -229 42 -451 155
-676 343 -225 188 -639 662 -836 955 -36 54 -64 99 -62 101 2 1 74 22 159 46
408 114 881 298 1178 459 698 380 1009 841 828 1227 -113 240 -423 406 -896
479 -148 24 -522 29 -660 10z m3670 -340 c49 -59 -49 -348 -214 -628 -161
-275 -616 -805 -616 -719 0 14 111 326 157 442 50 127 185 399 262 528 103
172 228 326 302 371 40 24 91 27 109 6z m-5166 -1159 c37 -14 98 -46 135 -70
67 -45 191 -165 191 -185 0 -6 -32 -66 -71 -133 -39 -67 -84 -148 -100 -180
-16 -32 -30 -58 -32 -58 -1 0 -23 7 -48 14 -145 44 -246 124 -302 238 -44 88
-57 146 -60 253 -2 88 13 127 56 146 37 16 157 3 231 -25z m526 -533 c30 -48
56 -90 58 -93 3 -8 -238 -23 -245 -16 -5 5 117 196 125 196 4 -1 32 -40 62
-87z"/>
</g>
</svg>
